# xmcd
#
# Track frame offsets: 
#        150
#        17165
#        30448
#        56691
#        72434
#        88281
#        102187
#        115338
#        130255
#        149934
#        162262
#
# Disc length: 2324 seconds
#
# Revision: 0
# Processed by: cddbd v1.5.2PL0 Copyright (c) Steve Scherf et al.
# Submitted via: ExactAudioCopy v1.0b1
#
DISCID=a109120b
DTITLE=Merry Clayton - Gimme Shelter
DYEAR=1970
DGENRE=Soul
TTITLE0=Country Road
TTITLE1=Tell All The People
TTITLE2=Bridge Over Troubled Water
TTITLE3=I've Got Life
TTITLE4=Gimme Shelter
TTITLE5=Here Come Those Heartaches Again
TTITLE6=Forget It I Got It
TTITLE7=You've Been Acting Strange 
TTITLE8=I Ain't Gonna Worry My Life Away
TTITLE9=Good Girls
TTITLE10=Glad Tiding 
EXTD=
EXTT0=
EXTT1=
EXTT2=
EXTT3=
EXTT4=
EXTT5=
EXTT6=
EXTT7=
EXTT8=
EXTT9=
EXTT10=
PLAYORDER=
